<svg width="35" height="35" viewBox="0 0 35 35" fill="none" xmlns="http://www.w3.org/2000/svg">
<rect x="0.5" y="0.5" width="34" height="34" rx="14.5" stroke="#DCDCDC" stroke-linecap="round"/>
<path d="M17.75 25.5C17.7183 25.5 17.6919 25.4758 17.6883 25.4443C17.1798 20.9154 13.5846 17.3202 9.05565 16.8117C9.02416 16.8082 9 16.7816 9 16.75C9 16.7184 9.02416 16.6918 9.05565 16.6883C13.5846 16.1798 17.1798 12.5846 17.6883 8.05565C17.6919 8.02416 17.7183 8 17.75 8C17.7817 8 17.8081 8.02416 17.8117 8.05565C18.3202 12.5846 21.9154 16.1798 26.4443 16.6883C26.4758 16.6918 26.5 16.7184 26.5 16.75C26.5 16.7816 26.4758 16.8082 26.4443 16.8117C21.9154 17.3202 18.3202 20.9154 17.8117 25.4443C17.8081 25.4758 17.7817 25.5 17.75 25.5Z" stroke="#DCDCDC" stroke-width="1.5" stroke-linecap="round"/>
</svg>
